<svg width="150" height="44" viewBox="0 0 150 44" fill="none" xmlns="http://www.w3.org/2000/svg">
<path d="M149.167 38.3359C149.167 40.6452 147.257 42.5158 144.895 42.5158H5.11028C2.7495 42.5158 0.833252 40.6452 0.833252 38.3359V5.00297C0.833252 2.69477 2.7495 0.817657 5.11028 0.817657H144.894C147.257 0.817657 149.165 2.69477 149.165 5.00297L149.167 38.3359Z" fill="black"/>
<path d="M144.444 0.868034C147.017 0.868034 149.11 2.90877 149.11 5.41668V37.9167C149.11 40.4246 147.017 42.4653 144.444 42.4653H5.55555C2.98333 42.4653 0.890277 40.4246 0.890277 37.9167V5.41668C0.890277 2.90877 2.98333 0.868034 5.55555 0.868034H144.444ZM144.444 1.56121e-05H5.55555C2.50139 1.56121e-05 0 2.43887 0 5.41668V37.9167C0 40.8945 2.50139 43.3333 5.55555 43.3333H144.444C147.499 43.3333 150 40.8945 150 37.9167V5.41668C150 2.43887 147.499 1.56121e-05 144.444 1.56121e-05Z" fill="#A6A6A6"/>
<path d="M33.4755 21.4327C33.4432 17.9411 36.4077 16.2425 36.5432 16.1634C34.8644 13.7768 32.2621 13.4507 31.3477 13.4247C29.1621 13.2005 27.0421 14.6998 25.9288 14.6998C24.7932 14.6998 23.0788 13.4464 21.231 13.4832C18.8532 13.519 16.6288 14.8612 15.4088 16.9456C12.891 21.1955 14.7688 27.4409 17.181 30.8761C18.3877 32.5585 19.7977 34.437 21.6432 34.371C23.4488 34.2984 24.1232 33.2486 26.3021 33.2486C28.461 33.2486 29.0944 34.371 30.9766 34.3287C32.9144 34.2984 34.1343 32.6387 35.2988 30.9411C36.6932 29.0128 37.2532 27.1137 37.2755 27.0162C37.2299 27.0011 33.5121 25.6176 33.4755 21.4327Z" fill="white"/>
<path d="M29.9199 11.1649C30.891 9.9808 31.5555 8.36989 31.371 6.73514C29.9655 6.7958 28.2077 7.68305 27.1955 8.84114C26.2999 9.86164 25.4999 11.5343 25.7066 13.1073C27.2855 13.2221 28.9066 12.3306 29.9199 11.1649Z" fill="white"/>
<path d="M59.6056 34.1292H57.0823L55.7001 29.8945H50.8956L49.579 34.1292H47.1223L51.8823 19.7122H54.8223L59.6056 34.1292ZM55.2834 28.1178L54.0334 24.3532C53.9012 23.9686 53.6534 23.063 53.2879 21.6373H53.2434C53.0979 22.2505 52.8634 23.1561 52.5412 24.3532L51.3134 28.1178H55.2834Z" fill="white"/>
<path d="M71.8466 28.8035C71.8466 30.5715 71.3566 31.969 70.3766 32.9949C69.4989 33.9082 68.4089 34.3642 67.1077 34.3642C65.7033 34.3642 64.6944 33.8724 64.08 32.8887H64.0355V38.365H61.6666V27.1557C61.6666 26.0442 61.6366 24.9035 61.5789 23.7335H63.6622L63.7944 25.3812H63.8389C64.6289 24.1397 65.8277 23.5201 67.4366 23.5201C68.6944 23.5201 69.7444 24.0043 70.5844 24.9739C71.4266 25.9446 71.8466 27.2207 71.8466 28.8035ZM69.4333 28.888C69.4333 27.8762 69.2 27.042 68.7311 26.3855C68.2189 25.7008 67.5311 25.3585 66.6689 25.3585C66.0844 25.3585 65.5533 25.5492 65.0789 25.9251C64.6033 26.3042 64.2922 26.7993 64.1466 27.4125C64.0733 27.6985 64.0366 27.9325 64.0366 28.1167V29.85C64.0366 30.6062 64.2744 31.2442 64.75 31.7653C65.2255 32.2864 65.8433 32.5464 66.6033 32.5464C67.4955 32.5464 68.19 32.2106 68.6866 31.5411C69.1844 30.8705 69.4333 29.9865 69.4333 28.888Z" fill="white"/>
<path d="M84.1102 28.8035C84.1102 30.5715 83.6202 31.969 82.6391 32.9949C81.7624 33.9082 80.6724 34.3642 79.3713 34.3642C77.9668 34.3642 76.958 33.8724 76.3446 32.8887H76.3002V38.365H73.9313V27.1557C73.9313 26.0442 73.9013 24.9035 73.8435 23.7335H75.9268L76.0591 25.3812H76.1035C76.8924 24.1397 78.0913 23.5201 79.7013 23.5201C80.958 23.5201 82.008 24.0043 82.8502 24.9739C83.6891 25.9446 84.1102 27.2207 84.1102 28.8035ZM81.6968 28.888C81.6968 27.8762 81.4624 27.042 80.9935 26.3855C80.4813 25.7008 79.7957 25.3585 78.9324 25.3585C78.3468 25.3585 77.8168 25.5492 77.3413 25.9251C76.8657 26.3042 76.5557 26.7993 76.4102 27.4125C76.3379 27.6985 76.3002 27.9325 76.3002 28.1167V29.85C76.3002 30.6062 76.5379 31.2442 77.0113 31.7653C77.4868 32.2853 78.1046 32.5464 78.8668 32.5464C79.7591 32.5464 80.4535 32.2106 80.9502 31.5411C81.448 30.8705 81.6968 29.9865 81.6968 28.888Z" fill="white"/>
<path d="M97.8213 30.0862C97.8213 31.3126 97.3846 32.3103 96.508 33.0806C95.5446 33.9223 94.2035 34.3426 92.4802 34.3426C90.8891 34.3426 89.6135 34.0436 88.6479 33.4446L89.1968 31.5195C90.2368 32.1326 91.378 32.4403 92.6213 32.4403C93.5135 32.4403 94.208 32.2431 94.7068 31.851C95.2035 31.4588 95.4513 30.9323 95.4513 30.2758C95.4513 29.6908 95.2468 29.1979 94.8368 28.7981C94.4291 28.3984 93.7479 28.0268 92.7968 27.6834C90.208 26.742 88.9146 25.3629 88.9146 23.5494C88.9146 22.3642 89.368 21.3925 90.2757 20.6363C91.1802 19.8791 92.3868 19.501 93.8957 19.501C95.2413 19.501 96.3591 19.7296 97.2513 20.1856L96.6591 22.0685C95.8257 21.6265 94.8835 21.4055 93.8291 21.4055C92.9957 21.4055 92.3446 21.6059 91.878 22.0046C91.4835 22.361 91.2857 22.7954 91.2857 23.31C91.2857 23.8798 91.5113 24.3511 91.9646 24.7216C92.3591 25.0639 93.0757 25.4344 94.1157 25.8341C95.388 26.3336 96.3224 26.9175 96.9235 27.587C97.5224 28.2543 97.8213 29.0896 97.8213 30.0862Z" fill="white"/>
<path d="M105.653 25.4669H103.042V30.5141C103.042 31.7979 103.502 32.4392 104.425 32.4392C104.848 32.4392 105.199 32.4035 105.477 32.332L105.542 34.0859C105.076 34.256 104.461 34.3416 103.7 34.3416C102.765 34.3416 102.033 34.0631 101.506 33.5074C100.98 32.9506 100.716 32.0167 100.716 30.7048V25.4647H99.1602V23.7314H100.716V21.828L103.042 21.1433V23.7314H105.653V25.4669Z" fill="white"/>
<path d="M117.435 28.8458C117.435 30.4437 116.966 31.7556 116.03 32.7815C115.049 33.8378 113.747 34.3643 112.123 34.3643C110.559 34.3643 109.313 33.8583 108.385 32.8465C107.456 31.8347 106.991 30.5574 106.991 29.018C106.991 27.4071 107.469 26.0876 108.428 25.0617C109.385 24.0347 110.676 23.5212 112.299 23.5212C113.863 23.5212 115.122 24.0271 116.072 25.04C116.981 26.0226 117.435 27.2912 117.435 28.8458ZM114.977 28.9205C114.977 27.9618 114.767 27.1395 114.341 26.4538C113.845 25.6239 113.135 25.2101 112.215 25.2101C111.262 25.2101 110.539 25.625 110.042 26.4538C109.617 27.1406 109.407 27.9758 109.407 28.9638C109.407 29.9226 109.617 30.7448 110.042 31.4295C110.555 32.2593 111.27 32.6732 112.193 32.6732C113.098 32.6732 113.808 32.2507 114.32 31.4078C114.757 30.7091 114.977 29.8782 114.977 28.9205Z" fill="white"/>
<path d="M125.135 25.7647C124.9 25.7225 124.65 25.7008 124.388 25.7008C123.555 25.7008 122.91 26.0074 122.457 26.6217C122.062 27.1633 121.865 27.848 121.865 28.6746V34.1292H119.497L119.519 27.0073C119.519 25.8092 119.489 24.7182 119.43 23.7346H121.494L121.58 25.7236H121.646C121.896 25.04 122.29 24.4897 122.83 24.0769C123.358 23.7053 123.928 23.5201 124.542 23.5201C124.761 23.5201 124.959 23.5352 125.135 23.5623V25.7647Z" fill="white"/>
<path d="M135.729 28.4396C135.729 28.8535 135.701 29.2023 135.642 29.4872H128.536C128.563 30.5142 128.907 31.2996 129.567 31.8413C130.166 32.3256 130.94 32.5682 131.891 32.5682C132.943 32.5682 133.903 32.4046 134.767 32.0764L135.138 33.6797C134.129 34.1087 132.938 34.3221 131.563 34.3221C129.91 34.3221 128.612 33.8476 127.668 32.8997C126.726 31.9518 126.253 30.6789 126.253 29.0821C126.253 27.5145 126.692 26.2091 127.571 25.168C128.491 24.0565 129.735 23.5007 131.299 23.5007C132.836 23.5007 133.999 24.0565 134.789 25.168C135.415 26.0509 135.729 27.1429 135.729 28.4396ZM133.47 27.8406C133.486 27.1559 133.331 26.5644 133.01 26.065C132.6 25.4226 131.97 25.1019 131.122 25.1019C130.348 25.1019 129.718 25.415 129.237 26.0433C128.842 26.5427 128.608 27.1418 128.536 27.8395H133.47V27.8406Z" fill="white"/>
<path d="M54.4999 10.8432C54.4999 12.1183 54.1077 13.0781 53.3244 13.7227C52.5988 14.3175 51.5677 14.6154 50.2321 14.6154C49.5699 14.6154 49.0033 14.5872 48.5288 14.5309V7.56396C49.1477 7.46646 49.8144 7.41663 50.5344 7.41663C51.8066 7.41663 52.7655 7.68638 53.4121 8.22588C54.1366 8.83579 54.4999 9.70788 54.4999 10.8432ZM53.2721 10.8746C53.2721 10.048 53.0477 9.41429 52.5988 8.97229C52.1499 8.53138 51.4944 8.31038 50.631 8.31038C50.2644 8.31038 49.9521 8.33421 49.6933 8.38404V13.6805C49.8366 13.7021 50.0988 13.7119 50.4799 13.7119C51.371 13.7119 52.0588 13.4703 52.5433 12.9871C53.0277 12.504 53.2721 11.7998 53.2721 10.8746Z" fill="white"/>
<path d="M61.0099 11.9569C61.0099 12.7423 60.7799 13.3858 60.3199 13.8907C59.8377 14.4096 59.1988 14.6685 58.401 14.6685C57.6321 14.6685 57.0199 14.4204 56.5632 13.9221C56.1077 13.4248 55.8799 12.7976 55.8799 12.0414C55.8799 11.2506 56.1143 10.6017 56.5854 10.0979C57.0565 9.59415 57.6899 9.34174 58.4877 9.34174C59.2566 9.34174 59.8743 9.58982 60.3421 10.0871C60.7866 10.5702 61.0099 11.1942 61.0099 11.9569ZM59.8021 11.9937C59.8021 11.5225 59.6977 11.1184 59.4899 10.7815C59.2454 10.3742 58.8977 10.1705 58.4454 10.1705C57.9777 10.1705 57.6221 10.3742 57.3777 10.7815C57.1688 11.1184 57.0654 11.529 57.0654 12.0143C57.0654 12.4856 57.1699 12.8897 57.3777 13.2266C57.6299 13.6339 57.981 13.8376 58.4343 13.8376C58.8788 13.8376 59.2277 13.6307 59.4788 13.2157C59.6943 12.8723 59.8021 12.465 59.8021 11.9937Z" fill="white"/>
<path d="M69.7388 9.44574L68.0999 14.5526H67.0332L66.3543 12.335C66.1821 11.7814 66.0421 11.2311 65.9332 10.6851H65.9121C65.811 11.2462 65.671 11.7955 65.491 12.335L64.7699 14.5526H63.691L62.1499 9.44574H63.3466L63.9388 11.8735C64.0821 12.4477 64.1999 12.9947 64.2943 13.5126H64.3155C64.4021 13.0857 64.5455 12.5419 64.7477 11.8843L65.491 9.44682H66.4399L67.1521 11.8323C67.3243 12.4141 67.4643 12.9742 67.5721 13.5137H67.6043C67.6832 12.9882 67.8021 12.4282 67.9599 11.8323L68.5955 9.44682H69.7388V9.44574Z" fill="white"/>
<path d="M75.7754 14.5526H74.611V11.6276C74.611 10.7263 74.2599 10.2756 73.5554 10.2756C73.2099 10.2756 72.931 10.3991 72.7143 10.6472C72.4999 10.8953 72.391 11.1878 72.391 11.5225V14.5515H71.2265V10.905C71.2265 10.4565 71.2121 9.97008 71.1843 9.44358H72.2077L72.2621 10.242H72.2943C72.4299 9.99392 72.6321 9.78917 72.8977 9.62558C73.2132 9.43492 73.5665 9.3385 73.9532 9.3385C74.4421 9.3385 74.8488 9.49233 75.1721 9.80108C75.5743 10.1792 75.7754 10.7436 75.7754 11.4933V14.5526Z" fill="white"/>
<path d="M78.9866 14.5526H77.8232V7.10248H78.9866V14.5526Z" fill="white"/>
<path d="M85.8422 11.9569C85.8422 12.7423 85.6122 13.3858 85.1522 13.8907C84.6699 14.4096 84.0299 14.6685 83.2333 14.6685C82.4633 14.6685 81.851 14.4204 81.3955 13.9221C80.9399 13.4248 80.7122 12.7976 80.7122 12.0414C80.7122 11.2506 80.9466 10.6017 81.4177 10.0979C81.8888 9.59415 82.5222 9.34174 83.3188 9.34174C84.0888 9.34174 84.7055 9.58982 85.1744 10.0871C85.6188 10.5702 85.8422 11.1942 85.8422 11.9569ZM84.6333 11.9937C84.6333 11.5225 84.5288 11.1184 84.321 10.7815C84.0777 10.3742 83.7288 10.1705 83.2777 10.1705C82.8088 10.1705 82.4533 10.3742 82.2099 10.7815C82.001 11.1184 81.8977 11.529 81.8977 12.0143C81.8977 12.4856 82.0022 12.8897 82.2099 13.2266C82.4622 13.6339 82.8133 13.8376 83.2666 13.8376C83.7111 13.8376 84.0588 13.6307 84.3099 13.2157C84.5266 12.8723 84.6333 12.465 84.6333 11.9937Z" fill="white"/>
<path d="M91.4777 14.5526H90.4322L90.3455 13.9643H90.3133C89.9555 14.4334 89.4455 14.6685 88.7833 14.6685C88.2888 14.6685 87.8888 14.5136 87.5877 14.2059C87.3144 13.9264 87.1777 13.5787 87.1777 13.1659C87.1777 12.5419 87.4444 12.0663 87.9811 11.737C88.5166 11.4077 89.27 11.2462 90.24 11.2538V11.1585C90.24 10.4857 89.8777 10.1499 89.1522 10.1499C88.6355 10.1499 88.18 10.2767 87.7866 10.528L87.55 9.78265C88.0366 9.48907 88.6377 9.34174 89.3466 9.34174C90.7155 9.34174 91.4022 10.0459 91.4022 11.4542V13.3349C91.4022 13.8452 91.4277 14.2514 91.4777 14.5526ZM90.2688 12.7976V12.01C88.9844 11.9883 88.3422 12.3317 88.3422 13.0392C88.3422 13.3057 88.4155 13.505 88.5655 13.6382C88.7155 13.7715 88.9066 13.8376 89.1344 13.8376C89.39 13.8376 89.6288 13.7585 89.8466 13.6014C90.0655 13.4432 90.2 13.2428 90.25 12.9969C90.2622 12.9417 90.2688 12.8745 90.2688 12.7976Z" fill="white"/>
<path d="M98.0942 14.5526H97.0609L97.0065 13.7325H96.9742C96.6442 14.3565 96.082 14.6685 95.292 14.6685C94.6609 14.6685 94.1353 14.4269 93.7187 13.9437C93.302 13.4606 93.0942 12.8333 93.0942 12.0631C93.0942 11.2365 93.3198 10.567 93.7731 10.0556C94.212 9.57898 94.7498 9.34064 95.3898 9.34064C96.0931 9.34064 96.5853 9.57139 96.8653 10.034H96.8876V7.10248H98.0531V13.1767C98.0531 13.674 98.0665 14.1322 98.0942 14.5526ZM96.8876 12.3989V11.5474C96.8876 11.4001 96.8764 11.2809 96.8553 11.1899C96.7898 10.9169 96.6487 10.6872 96.4342 10.502C96.2176 10.3167 95.9564 10.2236 95.6553 10.2236C95.2209 10.2236 94.8809 10.3915 94.6309 10.7284C94.3831 11.0653 94.2576 11.4954 94.2576 12.0208C94.2576 12.5256 94.3765 12.9351 94.6153 13.2504C94.8676 13.5862 95.2076 13.7541 95.6331 13.7541C96.0153 13.7541 96.3209 13.6144 96.5531 13.3338C96.7776 13.0749 96.8876 12.7629 96.8876 12.3989Z" fill="white"/>
<path d="M108.053 11.9569C108.053 12.7423 107.823 13.3858 107.363 13.8907C106.881 14.4096 106.243 14.6685 105.444 14.6685C104.677 14.6685 104.064 14.4204 103.607 13.9221C103.151 13.4248 102.923 12.7976 102.923 12.0414C102.923 11.2506 103.158 10.6017 103.629 10.0979C104.1 9.59415 104.733 9.34174 105.532 9.34174C106.3 9.34174 106.919 9.58982 107.386 10.0871C107.83 10.5702 108.053 11.1942 108.053 11.9569ZM106.847 11.9937C106.847 11.5225 106.742 11.1184 106.534 10.7815C106.289 10.3742 105.942 10.1705 105.489 10.1705C105.022 10.1705 104.667 10.3742 104.421 10.7815C104.212 11.1184 104.109 11.529 104.109 12.0143C104.109 12.4856 104.213 12.8897 104.421 13.2266C104.673 13.6339 105.024 13.8376 105.478 13.8376C105.922 13.8376 106.272 13.6307 106.523 13.2157C106.738 12.8723 106.847 12.465 106.847 11.9937Z" fill="white"/>
<path d="M114.314 14.5526H113.151V11.6276C113.151 10.7263 112.8 10.2756 112.094 10.2756C111.749 10.2756 111.47 10.3991 111.254 10.6472C111.039 10.8953 110.931 11.1878 110.931 11.5225V14.5515H109.765V10.905C109.765 10.4565 109.752 9.97008 109.724 9.44358H110.747L110.801 10.242H110.833C110.97 9.99392 111.172 9.78917 111.437 9.62558C111.753 9.43492 112.105 9.3385 112.493 9.3385C112.981 9.3385 113.388 9.49233 113.711 9.80108C114.114 10.1792 114.314 10.7436 114.314 11.4933V14.5526Z" fill="white"/>
<path d="M122.151 10.2961H120.869V12.7769C120.869 13.4074 121.096 13.7227 121.548 13.7227C121.756 13.7227 121.93 13.7054 122.066 13.6696L122.096 14.5309C121.866 14.6154 121.564 14.6576 121.192 14.6576C120.732 14.6576 120.374 14.5211 120.115 14.2481C119.855 13.9751 119.726 13.5158 119.726 12.8712V10.2961H118.961V9.44569H119.726V8.50969L120.868 8.17386V9.44461H122.15V10.2961H122.151Z" fill="white"/>
<path d="M128.316 14.5526H127.15V11.6492C127.15 10.7338 126.799 10.2756 126.096 10.2756C125.555 10.2756 125.187 10.541 124.984 11.0718C124.95 11.1834 124.93 11.3199 124.93 11.4802V14.5515H123.767V7.10248H124.93V10.1802H124.952C125.319 9.62014 125.844 9.34064 126.526 9.34064C127.008 9.34064 127.407 9.49448 127.723 9.80323C128.118 10.1878 128.316 10.7598 128.316 11.516V14.5526Z" fill="white"/>
<path d="M134.674 11.7576C134.674 11.9613 134.659 12.1324 134.631 12.2722H131.139C131.154 12.777 131.321 13.1616 131.644 13.4281C131.94 13.6664 132.321 13.7856 132.788 13.7856C133.304 13.7856 133.775 13.7054 134.2 13.544L134.382 14.3327C133.885 14.5429 133.301 14.6479 132.624 14.6479C131.813 14.6479 131.174 14.415 130.712 13.9492C130.248 13.4834 130.018 12.8583 130.018 12.0739C130.018 11.3037 130.232 10.6624 130.664 10.151C131.115 9.60503 131.725 9.33203 132.495 9.33203C133.249 9.33203 133.821 9.60503 134.208 10.151C134.52 10.5844 134.674 11.1206 134.674 11.7576ZM133.563 11.464C133.572 11.1271 133.495 10.8368 133.338 10.5919C133.135 10.2767 132.828 10.1185 132.411 10.1185C132.031 10.1185 131.721 10.2724 131.484 10.5811C131.291 10.827 131.176 11.1206 131.139 11.464H133.563Z" fill="white"/>
</svg>
