<svg width="20" height="20" viewBox="0 0 20 20" fill="none" xmlns="http://www.w3.org/2000/svg">
<g clip-path="url(#clip0_30_2389)">
<path fill-rule="evenodd" clip-rule="evenodd" d="M9.087 2.054C9.285 2.054 9.444 2.214 9.444 2.411C9.444 2.429 9.437 2.445 9.434 2.463H9.444V10.218C9.444 10.415 9.604 10.575 9.801 10.575H17.581C17.777 10.575 17.937 10.735 17.937 10.932L17.935 10.942L17.937 11.027C17.937 15.982 13.922 20 8.968 20C4.015 20 0 15.982 0 11.027C0 6.07 4.015 2.054 8.968 2.054L9.064 2.056C9.072 2.058 9.079 2.054 9.087 2.054ZM11.13 0C16.007 0.05 19.95 3.996 20.001 8.876C20.001 9.073 19.841 9.233 19.644 9.233C19.626 9.233 19.61 9.225 19.592 9.223V9.233H11.13C11.0353 9.233 10.9445 9.19539 10.8776 9.12844C10.8106 9.06149 10.773 8.97068 10.773 8.876V0.41H10.783C10.781 0.392 10.773 0.376 10.773 0.358C10.773 0.161 10.933 0.001 11.13 0.001V0Z" fill="#818A91"/>
</g>
<defs>
<clipPath id="clip0_30_2389">
<rect width="20" height="20" fill="white"/>
</clipPath>
</defs>
</svg>
