<svg width="20" height="20" viewBox="0 0 20 20" fill="none" xmlns="http://www.w3.org/2000/svg">
<path d="M9.16669 17.5V15.8333H15.8334V9.91667C15.8334 9.11111 15.6806 8.35417 15.375 7.64583C15.0695 6.9375 14.6528 6.31945 14.125 5.79167C13.5972 5.26389 12.9792 4.84722 12.2709 4.54167C11.5625 4.23611 10.8056 4.08333 10 4.08333C9.19446 4.08333 8.43752 4.23611 7.72919 4.54167C7.02085 4.84722 6.4028 5.26389 5.87502 5.79167C5.34724 6.31945 4.93058 6.9375 4.62502 7.64583C4.31946 8.35417 4.16669 9.11111 4.16669 9.91667V15H3.33335C2.87502 15 2.4828 14.8367 2.15669 14.51C1.83058 14.1833 1.66724 13.7911 1.66669 13.3333V11.6667C1.66669 11.3472 1.74308 11.0661 1.89585 10.8233C2.04863 10.5806 2.25002 10.3825 2.50002 10.2292L2.56252 9.125C2.68752 8.11111 2.97585 7.19445 3.42752 6.375C3.87919 5.55556 4.44169 4.86111 5.11502 4.29167C5.78835 3.72222 6.5453 3.28111 7.38585 2.96833C8.22641 2.65556 9.0978 2.49945 10 2.5C10.9167 2.5 11.7953 2.65639 12.6359 2.96917C13.4764 3.28195 14.2297 3.72639 14.8959 4.3025C15.5625 4.87861 16.1217 5.57306 16.5734 6.38583C17.025 7.19861 17.3131 8.10472 17.4375 9.10417L17.5 10.1875C17.75 10.3125 17.9514 10.4967 18.1042 10.74C18.257 10.9833 18.3334 11.2506 18.3334 11.5417V13.4583C18.3334 13.7639 18.257 14.0347 18.1042 14.2708C17.9514 14.5069 17.75 14.6875 17.5 14.8125V15.8333C17.5 16.2917 17.3367 16.6842 17.01 17.0108C16.6834 17.3375 16.2911 17.5006 15.8334 17.5H9.16669ZM7.50002 11.6667C7.26391 11.6667 7.06585 11.5867 6.90585 11.4267C6.74585 11.2667 6.66613 11.0689 6.66669 10.8333C6.66669 10.5972 6.74669 10.3992 6.90669 10.2392C7.06669 10.0792 7.26446 9.99945 7.50002 10C7.73613 10 7.93419 10.08 8.09419 10.24C8.25419 10.4 8.33391 10.5978 8.33335 10.8333C8.33335 11.0694 8.25335 11.2675 8.09335 11.4275C7.93335 11.5875 7.73558 11.6672 7.50002 11.6667ZM12.5 11.6667C12.2639 11.6667 12.0659 11.5867 11.9059 11.4267C11.7459 11.2667 11.6661 11.0689 11.6667 10.8333C11.6667 10.5972 11.7467 10.3992 11.9067 10.2392C12.0667 10.0792 12.2645 9.99945 12.5 10C12.7361 10 12.9342 10.08 13.0942 10.24C13.2542 10.4 13.3339 10.5978 13.3334 10.8333C13.3334 11.0694 13.2534 11.2675 13.0934 11.4275C12.9334 11.5875 12.7356 11.6672 12.5 11.6667ZM5.02085 10.375C4.9653 9.55556 5.08002 8.8125 5.36502 8.14583C5.65002 7.47917 6.03196 6.91306 6.51085 6.4475C6.98974 5.9825 7.54169 5.625 8.16669 5.375C8.79169 5.125 9.41669 5 10.0417 5C11.3056 5 12.3995 5.39945 13.3234 6.19834C14.2472 6.99722 14.8061 7.99333 15 9.18667C13.6945 9.17333 12.5139 8.82278 11.4584 8.135C10.4028 7.44722 9.60419 6.555 9.06252 5.45833C8.8403 6.58333 8.37141 7.58 7.65585 8.44833C6.9403 9.31667 6.06141 9.95889 5.02085 10.375Z" fill="white"/>
</svg>
