<svg width="24" height="24" viewBox="0 0 24 24" fill="none" xmlns="http://www.w3.org/2000/svg">
<path d="M20.6 6.32499C20.6 5.22499 20.221 4.29566 19.463 3.53699C18.705 2.77833 17.7757 2.39933 16.675 2.39999C16.4917 2.39999 16.3333 2.33333 16.2 2.19999C16.0667 2.06666 16 1.89999 16 1.69999C16 1.51666 16.0667 1.35833 16.2 1.22499C16.3333 1.09166 16.4917 1.02499 16.675 1.02499C18.1417 1.02499 19.3917 1.54166 20.425 2.57499C21.4583 3.60833 21.975 4.85833 21.975 6.32499C21.975 6.50833 21.9083 6.66666 21.775 6.79999C21.6417 6.93333 21.4833 6.99999 21.3 6.99999C21.1 6.99999 20.9333 6.93333 20.8 6.79999C20.6667 6.66666 20.6 6.50833 20.6 6.32499ZM4 21C3.45 21 2.979 20.804 2.587 20.412C2.195 20.02 1.99934 19.5493 2 19V6.99999C2 6.44999 2.196 5.97899 2.588 5.58699C2.98 5.19499 3.45067 4.99933 4 4.99999H7.15L8.4 3.64999C8.58333 3.43333 8.80434 3.27066 9.063 3.16199C9.32167 3.05333 9.592 2.99933 9.874 2.99999H14C14.2833 2.99999 14.521 3.09599 14.713 3.28799C14.905 3.47999 15.0007 3.71733 15 3.99999V5.99999C15.55 5.99999 16.021 6.19599 16.413 6.58799C16.805 6.97999 17.0007 7.45066 17 7.99999H21C21.2833 7.99999 21.521 8.09599 21.713 8.28799C21.905 8.47999 22.0007 8.71733 22 8.99999V19C22 19.55 21.804 20.021 21.412 20.413C21.02 20.805 20.5493 21.0007 20 21H4ZM17.9 6.34999C17.9 5.99999 17.779 5.70399 17.537 5.46199C17.295 5.21999 16.9993 5.09933 16.65 5.09999C16.4667 5.09999 16.3127 5.02933 16.188 4.88799C16.0633 4.74666 16.0007 4.58399 16 4.39999C16 4.21666 16.0667 4.05833 16.2 3.92499C16.3333 3.79166 16.4917 3.72499 16.675 3.72499C17.3917 3.72499 18.0043 3.97933 18.513 4.48799C19.0217 4.99666 19.2757 5.60899 19.275 6.32499C19.275 6.50833 19.2083 6.66666 19.075 6.79999C18.9417 6.93333 18.7833 6.99999 18.6 6.99999C18.4167 6.99999 18.254 6.93733 18.112 6.81199C17.97 6.68666 17.8993 6.53266 17.9 6.34999ZM12 17.5C13.25 17.5 14.3127 17.0623 15.188 16.187C16.0633 15.3117 16.5007 14.2493 16.5 13C16.5 11.75 16.0623 10.6873 15.187 9.81199C14.3117 8.93666 13.2493 8.49933 12 8.49999C10.75 8.49999 9.68734 8.93766 8.812 9.81299C7.93667 10.6883 7.49934 11.7507 7.5 13C7.5 14.25 7.93767 15.3127 8.813 16.188C9.68833 17.0633 10.7507 17.5007 12 17.5Z" fill="#818A91"/>
</svg>
