<svg width="18" height="18" viewBox="0 0 18 18" fill="none" xmlns="http://www.w3.org/2000/svg">
<path d="M3.5 18C2.53333 18 1.70833 17.6583 1.025 16.975C0.341667 16.2917 0 15.4667 0 14.5C0 13.5333 0.341667 12.7083 1.025 12.025C1.70833 11.3417 2.53333 11 3.5 11H5V7H3.5C2.53333 7 1.70833 6.65833 1.025 5.975C0.341667 5.29167 0 4.46667 0 3.5C0 2.53333 0.341667 1.70833 1.025 1.025C1.70833 0.341667 2.53333 0 3.5 0C4.46667 0 5.29167 0.341667 5.975 1.025C6.65833 1.70833 7 2.53333 7 3.5V5H11V3.5C11 2.53333 11.3417 1.70833 12.025 1.025C12.7083 0.341667 13.5333 0 14.5 0C15.4667 0 16.2917 0.341667 16.975 1.025C17.6583 1.70833 18 2.53333 18 3.5C18 4.46667 17.6583 5.29167 16.975 5.975C16.2917 6.65833 15.4667 7 14.5 7H13V11H14.5C15.4667 11 16.2917 11.3417 16.975 12.025C17.6583 12.7083 18 13.5333 18 14.5C18 15.4667 17.6583 16.2917 16.975 16.975C16.2917 17.6583 15.4667 18 14.5 18C13.5333 18 12.7083 17.6583 12.025 16.975C11.3417 16.2917 11 15.4667 11 14.5V13H7V14.5C7 15.4667 6.65833 16.2917 5.975 16.975C5.29167 17.6583 4.46667 18 3.5 18ZM3.5 16C3.91667 16 4.271 15.854 4.563 15.562C4.855 15.27 5.00067 14.916 5 14.5V13H3.5C3.08333 13 2.729 13.146 2.437 13.438C2.145 13.73 1.99933 14.084 2 14.5C2 14.9167 2.146 15.271 2.438 15.563C2.73 15.855 3.084 16.0007 3.5 16ZM14.5 16C14.9167 16 15.271 15.854 15.563 15.562C15.855 15.27 16.0007 14.916 16 14.5C16 14.0833 15.854 13.729 15.562 13.437C15.27 13.145 14.916 12.9993 14.5 13H13V14.5C13 14.9167 13.146 15.271 13.438 15.563C13.73 15.855 14.084 16.0007 14.5 16ZM7 11H11V7H7V11ZM3.5 5H5V3.5C5 3.08333 4.854 2.729 4.562 2.437C4.27 2.145 3.916 1.99933 3.5 2C3.08333 2 2.729 2.146 2.437 2.438C2.145 2.73 1.99933 3.084 2 3.5C2 3.91667 2.146 4.271 2.438 4.563C2.73 4.855 3.084 5.00067 3.5 5ZM13 5H14.5C14.9167 5 15.271 4.854 15.563 4.562C15.855 4.27 16.0007 3.916 16 3.5C16 3.08333 15.854 2.729 15.562 2.437C15.27 2.145 14.916 1.99933 14.5 2C14.0833 2 13.729 2.146 13.437 2.438C13.145 2.73 12.9993 3.084 13 3.5V5Z" fill="#818A91"/>
</svg>
