<svg width="24" height="24" viewBox="0 0 24 24" fill="none" xmlns="http://www.w3.org/2000/svg">
<path d="M19.006 3.70504C19.193 3.63715 19.3454 3.49775 19.4296 3.31753C19.5138 3.13731 19.5229 2.93102 19.455 2.74404C19.3871 2.55706 19.2478 2.40472 19.0675 2.32051C18.8873 2.23631 18.681 2.22715 18.494 2.29504L6.00004 6.83804V3.00004C6.00004 2.80113 5.92102 2.61036 5.78037 2.46971C5.63972 2.32906 5.44895 2.25004 5.25004 2.25004H3.75004C3.55113 2.25004 3.36036 2.32906 3.21971 2.46971C3.07906 2.61036 3.00004 2.80113 3.00004 3.00004V7.93004L1.99404 8.29504C1.80706 8.36294 1.65472 8.50233 1.57051 8.68255C1.48631 8.86277 1.47715 9.06906 1.54504 9.25604C1.61294 9.44302 1.75233 9.59537 1.93255 9.67957C2.11277 9.76377 2.31906 9.77294 2.50604 9.70504L19.006 3.70504Z" fill="#818A91"/>
<path fill-rule="evenodd" clip-rule="evenodd" d="M3.019 11.115L18 5.66699V9.08999L22.006 10.546C22.193 10.6139 22.3453 10.7533 22.4295 10.9335C22.5137 11.1137 22.5229 11.32 22.455 11.507C22.3871 11.694 22.2477 11.8463 22.0675 11.9305C21.8873 12.0147 21.681 12.0239 21.494 11.956L21 11.776V20.251H21.75C21.9489 20.251 22.1397 20.33 22.2803 20.4707C22.421 20.6113 22.5 20.8021 22.5 21.001C22.5 21.1999 22.421 21.3907 22.2803 21.5313C22.1397 21.672 21.9489 21.751 21.75 21.751H2.25C2.05109 21.751 1.86032 21.672 1.71967 21.5313C1.57902 21.3907 1.5 21.1999 1.5 21.001C1.5 20.8021 1.57902 20.6113 1.71967 20.4707C1.86032 20.33 2.05109 20.251 2.25 20.251H3V11.122L3.019 11.116V11.115ZM18 20.25V10.685L19.5 11.23V20.25H18ZM9 14.25C8.80109 14.25 8.61032 14.329 8.46967 14.4697C8.32902 14.6103 8.25 14.8011 8.25 15V19.5C8.25 19.914 8.586 20.25 9 20.25H12C12.1989 20.25 12.3897 20.171 12.5303 20.0303C12.671 19.8897 12.75 19.6989 12.75 19.5V15C12.75 14.8011 12.671 14.6103 12.5303 14.4697C12.3897 14.329 12.1989 14.25 12 14.25H9Z" fill="#818A91"/>
</svg>
