<svg width="20" height="20" viewBox="0 0 20 20" fill="none" xmlns="http://www.w3.org/2000/svg">
<path d="M6.66667 3.33332H4.16667C3.72464 3.33332 3.30072 3.50892 2.98816 3.82148C2.6756 4.13404 2.5 4.55796 2.5 4.99999V5.83332M6.66667 16.6667H4.16667C3.72464 16.6667 3.30072 16.4911 2.98816 16.1785C2.6756 15.8659 2.5 15.442 2.5 15V14.1667M12.4992 9.99999H12.5M6.66667 9.99999H2.5M2.5 9.99999L4.16667 8.33332M2.5 9.99999L4.16667 11.6667M16.3125 16.19L11.3125 17.69C11.0636 17.7647 10.8007 17.7802 10.5447 17.7352C10.2888 17.6902 10.0469 17.5859 9.83841 17.4308C9.62992 17.2757 9.46059 17.0739 9.34396 16.8417C9.22732 16.6095 9.16661 16.3532 9.16667 16.0933V3.90666C9.16661 3.64678 9.22732 3.3905 9.34396 3.15827C9.46059 2.92604 9.62992 2.7243 9.83841 2.56917C10.0469 2.41403 10.2888 2.3098 10.5447 2.2648C10.8007 2.2198 11.0636 2.23528 11.3125 2.30999L16.3125 3.80999C16.6558 3.91304 16.9568 4.12404 17.1707 4.41166C17.3846 4.69928 17.5001 5.04821 17.5 5.40666V14.5933C17.5001 14.9518 17.3846 15.3007 17.1707 15.5883C16.9568 15.8759 16.6558 16.0869 16.3125 16.19Z" stroke="white" stroke-width="2" stroke-linecap="round" stroke-linejoin="round"/>
</svg>
