<svg width="150" height="44" viewBox="0 0 150 44" fill="none" xmlns="http://www.w3.org/2000/svg">
<path d="M144.444 43.3931H5.55556C2.50139 43.3931 0 40.9509 0 37.9689V5.42421C0 2.4423 2.50139 9.11748e-05 5.55556 9.11748e-05H144.444C147.499 9.11748e-05 150 2.4423 150 5.42421V37.9689C150 40.9509 147.499 43.3931 144.444 43.3931Z" fill="black"/>
<path d="M144.444 0.869305C147.017 0.869305 149.11 2.91284 149.11 5.42421V37.9689C149.11 40.4803 147.017 42.5239 144.444 42.5239H5.55556C2.98333 42.5239 0.890278 40.4803 0.890278 37.9689V5.42421C0.890278 2.91284 2.98333 0.869305 5.55556 0.869305H144.444ZM144.444 9.11748e-05H5.55556C2.50139 9.11748e-05 0 2.4423 0 5.42421V37.9689C0 40.9509 2.50139 43.3931 5.55556 43.3931H144.444C147.499 43.3931 150 40.9509 150 37.9689V5.42421C150 2.4423 147.499 9.11748e-05 144.444 9.11748e-05Z" fill="#A6A6A6"/>
<path d="M52.6862 11.1128C52.6862 12.0187 52.4084 12.7441 51.8612 13.2852C51.232 13.9266 50.4125 14.2493 49.4084 14.2493C48.4487 14.2493 47.6292 13.9212 46.957 13.2743C46.2834 12.618 45.9473 11.8125 45.9473 10.8484C45.9473 9.88427 46.2834 9.07878 46.957 8.42789C47.6292 7.77564 48.4487 7.44748 49.4084 7.44748C49.8862 7.44748 50.3417 7.54376 50.7764 7.72275C51.2098 7.90311 51.5625 8.14719 51.8181 8.44823L51.2375 9.02048C50.7917 8.50654 50.1848 8.25296 49.4084 8.25296C48.7084 8.25296 48.1014 8.49162 47.5862 8.97301C47.0764 9.45576 46.8209 10.0809 46.8209 10.8484C46.8209 11.6159 47.0764 12.2465 47.5862 12.7292C48.1014 13.2052 48.7084 13.4493 49.4084 13.4493C50.1514 13.4493 50.7764 13.2052 51.2695 12.7238C51.5945 12.4051 51.7792 11.9658 51.8278 11.4044H49.4084V10.6206H52.6362C52.675 10.7901 52.6862 10.9542 52.6862 11.1128Z" fill="white" stroke="white" stroke-width="0.16" stroke-miterlimit="10"/>
<path d="M57.807 8.39523H54.7751V10.4564H57.5084V11.2402H54.7751V13.3013H57.807V14.1H53.9167V7.59653H57.807V8.39523Z" fill="white" stroke="white" stroke-width="0.16" stroke-miterlimit="10"/>
<path d="M61.4207 14.1H60.5624V8.39523H58.7026V7.59653H63.2818V8.39523H61.4207V14.1Z" fill="white" stroke="white" stroke-width="0.16" stroke-miterlimit="10"/>
<path d="M66.5959 14.1V7.59653H67.4529V14.1H66.5959Z" fill="white" stroke="white" stroke-width="0.16" stroke-miterlimit="10"/>
<path d="M71.2512 14.1H70.3999V8.39523H68.5332V7.59653H73.1179V8.39523H71.2512V14.1Z" fill="white" stroke="white" stroke-width="0.16" stroke-miterlimit="10"/>
<path d="M81.7876 13.2635C81.1306 13.9212 80.3167 14.2493 79.3459 14.2493C78.3695 14.2493 77.5556 13.9212 76.8987 13.2635C76.2431 12.6072 75.9167 11.8017 75.9167 10.8484C75.9167 9.89511 76.2431 9.08963 76.8987 8.43331C77.5556 7.77564 78.3695 7.44748 79.3459 7.44748C80.3112 7.44748 81.1251 7.77564 81.782 8.43874C82.4431 9.10048 82.7695 9.90054 82.7695 10.8484C82.7695 11.8017 82.4431 12.6072 81.7876 13.2635ZM77.5334 12.7184C78.0279 13.2052 78.6292 13.4493 79.3459 13.4493C80.057 13.4493 80.664 13.2052 81.1529 12.7184C81.6459 12.2316 81.8959 11.6064 81.8959 10.8484C81.8959 10.0904 81.6459 9.46525 81.1529 8.97844C80.664 8.49162 80.057 8.24754 79.3459 8.24754C78.6292 8.24754 78.0279 8.49162 77.5334 8.97844C77.0404 9.46525 76.7904 10.0904 76.7904 10.8484C76.7904 11.6064 77.0404 12.2316 77.5334 12.7184Z" fill="white" stroke="white" stroke-width="0.16" stroke-miterlimit="10"/>
<path d="M83.9736 14.1V7.59653H85.0153L88.2542 12.6545H88.2917L88.2542 11.4043V7.59653H89.1111V14.1H88.2167L84.825 8.79255H84.7875L84.825 10.0482V14.1H83.9736Z" fill="white" stroke="white" stroke-width="0.16" stroke-miterlimit="10"/>
<path d="M75.7056 23.5978C73.0959 23.5978 70.964 25.5369 70.964 28.2124C70.964 30.8661 73.0959 32.8256 75.7056 32.8256C78.3209 32.8256 80.4529 30.8661 80.4529 28.2124C80.4529 25.5369 78.3209 23.5978 75.7056 23.5978ZM75.7056 31.0085C74.2737 31.0085 73.0418 29.8545 73.0418 28.2124C73.0418 26.5485 74.2737 25.4149 75.7056 25.4149C77.1376 25.4149 78.3751 26.5485 78.3751 28.2124C78.3751 29.8545 77.1376 31.0085 75.7056 31.0085ZM65.3598 23.5978C62.7445 23.5978 60.6181 25.5369 60.6181 28.2124C60.6181 30.8661 62.7445 32.8256 65.3598 32.8256C67.9737 32.8256 70.1015 30.8661 70.1015 28.2124C70.1015 25.5369 67.9737 23.5978 65.3598 23.5978ZM65.3598 31.0085C63.9265 31.0085 62.6904 29.8545 62.6904 28.2124C62.6904 26.5485 63.9265 25.4149 65.3598 25.4149C66.7918 25.4149 68.0237 26.5485 68.0237 28.2124C68.0237 29.8545 66.7918 31.0085 65.3598 31.0085ZM53.0487 25.0121V26.973H57.8445C57.7043 28.0686 57.3293 28.8741 56.7543 29.4355C56.0543 30.1135 54.964 30.8661 53.0487 30.8661C50.0973 30.8661 47.7862 28.5405 47.7862 25.659C47.7862 22.7774 50.0973 20.4518 53.0487 20.4518C54.6445 20.4518 55.8056 21.0607 56.6626 21.8499L58.0779 20.4681C56.8793 19.3507 55.2848 18.4923 53.0487 18.4923C49.0015 18.4923 45.6001 21.7075 45.6001 25.659C45.6001 29.6104 49.0015 32.8256 53.0487 32.8256C55.2362 32.8256 56.8793 32.1259 58.1709 30.8132C59.4945 29.5209 59.907 27.7039 59.907 26.2366C59.907 25.781 59.8681 25.362 59.7987 25.0121H53.0487ZM103.39 26.5323C103 25.5003 101.796 23.5978 99.3431 23.5978C96.9126 23.5978 94.889 25.4678 94.889 28.2124C94.889 30.797 96.8917 32.8256 99.5765 32.8256C101.747 32.8256 103 31.5333 103.515 30.7807L101.904 29.7325C101.367 30.5 100.635 31.0085 99.5765 31.0085C98.5251 31.0085 97.7709 30.538 97.2876 29.6104L103.608 27.057L103.39 26.5323ZM96.9459 28.0686C96.8918 26.2895 98.3612 25.3783 99.414 25.3783C100.239 25.3783 100.939 25.781 101.172 26.3573L96.9459 28.0686ZM91.8084 32.5449H93.8862V18.9846H91.8084V32.5449ZM88.4056 24.6257H88.3362C87.8695 24.086 86.9793 23.5978 85.8515 23.5978C83.4848 23.5978 81.3209 25.6264 81.3209 28.2273C81.3209 30.8132 83.4848 32.8256 85.8515 32.8256C86.9793 32.8256 87.8695 32.3334 88.3362 31.7774H88.4056V32.4391C88.4056 34.2033 87.4404 35.1512 85.8834 35.1512C84.614 35.1512 83.8265 34.2562 83.5015 33.5036L81.6945 34.2399C82.2154 35.4631 83.5945 36.9683 85.8834 36.9683C88.3195 36.9683 90.3751 35.5688 90.3751 32.1638V23.8785H88.4056V24.6257ZM86.0293 31.0085C84.5973 31.0085 83.3987 29.8383 83.3987 28.2273C83.3987 26.6014 84.5973 25.4149 86.0293 25.4149C87.4404 25.4149 88.5529 26.6014 88.5529 28.2273C88.5529 29.8383 87.4404 31.0085 86.0293 31.0085ZM113.118 18.9846H108.149V32.5449H110.221V27.4069H113.118C115.42 27.4069 117.676 25.781 117.676 23.1951C117.676 20.6105 115.414 18.9846 113.118 18.9846ZM113.172 25.5207H110.221V20.8708H113.172C114.72 20.8708 115.603 22.1252 115.603 23.1951C115.603 24.2446 114.72 25.5207 113.172 25.5207ZM125.982 23.572C124.485 23.572 122.928 24.2175 122.288 25.6481L124.126 26.4007C124.522 25.6481 125.25 25.404 126.02 25.404C127.095 25.404 128.185 26.0346 128.201 27.1479V27.2903C127.826 27.0787 127.024 26.7655 126.036 26.7655C124.056 26.7655 122.038 27.83 122.038 29.8166C122.038 31.6336 123.66 32.8039 125.483 32.8039C126.878 32.8039 127.647 32.1896 128.131 31.475H128.201V32.5232H130.203V27.3215C130.203 24.9172 128.364 23.572 125.982 23.572ZM125.732 31.0031C125.054 31.0031 124.11 30.6749 124.11 29.8545C124.11 28.805 125.288 28.4022 126.307 28.4022C127.22 28.4022 127.647 28.5988 128.201 28.8578C128.039 30.1135 126.932 31.0031 125.732 31.0031ZM137.495 23.869L135.113 29.7474H135.042L132.579 23.869H130.345L134.045 32.0838L131.933 36.655H134.099L139.8 23.869H137.495ZM118.815 32.5449H120.893V18.9846H118.815V32.5449Z" fill="white"/>
<path d="M11.5944 8.17833C11.268 8.51191 11.0791 9.03127 11.0791 9.70386V33.6948C11.0791 34.3673 11.268 34.8867 11.5944 35.2203L11.6749 35.2935L25.4444 21.8553V21.5379L11.6749 8.09968L11.5944 8.17833Z" fill="url(#paint0_linear_228_213)"/>
<path d="M30.0291 26.3369L25.4443 21.8552V21.5379L30.0346 17.0562L30.1374 17.1146L35.5735 20.1344C37.1249 20.9914 37.1249 22.4017 35.5735 23.2641L30.1374 26.2786L30.0291 26.3369Z" fill="url(#paint1_linear_228_213)"/>
<path d="M30.1375 26.2787L25.4445 21.6967L11.5945 35.2204C12.1098 35.7492 12.95 35.8129 13.9056 35.2841L30.1375 26.2787Z" fill="url(#paint2_linear_228_213)"/>
<path d="M30.1375 17.1145L13.9056 8.10914C12.95 7.58571 12.1098 7.64944 11.5945 8.1783L25.4445 21.6966L30.1375 17.1145Z" fill="url(#paint3_linear_228_213)"/>
<defs>
<linearGradient id="paint0_linear_228_213" x1="24.2218" y1="33.9446" x2="6.02107" y2="15.3028" gradientUnits="userSpaceOnUse">
<stop stop-color="#00A0FF"/>
<stop offset="0.0066" stop-color="#00A1FF"/>
<stop offset="0.2601" stop-color="#00BEFF"/>
<stop offset="0.5122" stop-color="#00D2FF"/>
<stop offset="0.7604" stop-color="#00DFFF"/>
<stop offset="1" stop-color="#00E3FF"/>
</linearGradient>
<linearGradient id="paint1_linear_228_213" x1="37.5937" y1="21.6951" x2="10.7082" y2="21.6951" gradientUnits="userSpaceOnUse">
<stop stop-color="#FFE000"/>
<stop offset="0.4087" stop-color="#FFBD00"/>
<stop offset="0.7754" stop-color="#FFA500"/>
<stop offset="1" stop-color="#FF9C00"/>
</linearGradient>
<linearGradient id="paint2_linear_228_213" x1="27.5856" y1="19.2058" x2="2.90391" y2="-6.07395" gradientUnits="userSpaceOnUse">
<stop stop-color="#FF3A44"/>
<stop offset="1" stop-color="#C31162"/>
</linearGradient>
<linearGradient id="paint3_linear_228_213" x1="8.10815" y1="43.2019" x2="19.1296" y2="31.9135" gradientUnits="userSpaceOnUse">
<stop stop-color="#32A071"/>
<stop offset="0.0685" stop-color="#2DA771"/>
<stop offset="0.4762" stop-color="#15CF74"/>
<stop offset="0.8009" stop-color="#06E775"/>
<stop offset="1" stop-color="#00F076"/>
</linearGradient>
</defs>
</svg>
