<svg width="22" height="20" viewBox="0 0 22 20" fill="none" xmlns="http://www.w3.org/2000/svg">
<path d="M17.5 0H15C14.8674 0 14.7402 0.0526785 14.6464 0.146447C14.5527 0.240215 14.5 0.367392 14.5 0.5V0.559L18 3.359V0.5C18 0.367392 17.9473 0.240215 17.8536 0.146447C17.7598 0.0526785 17.6326 0 17.5 0Z" fill="#818A91"/>
<path fill-rule="evenodd" clip-rule="evenodd" d="M9.75 6.5C9.75 6.16848 9.8817 5.85054 10.1161 5.61612C10.3505 5.3817 10.6685 5.25 11 5.25C11.3315 5.25 11.6495 5.3817 11.8839 5.61612C12.1183 5.85054 12.25 6.16848 12.25 6.5C12.25 6.83152 12.1183 7.14946 11.8839 7.38388C11.6495 7.6183 11.3315 7.75 11 7.75C10.6685 7.75 10.3505 7.6183 10.1161 7.38388C9.8817 7.14946 9.75 6.83152 9.75 6.5V6.5Z" fill="#818A91"/>
<path fill-rule="evenodd" clip-rule="evenodd" d="M19.75 7.95985L20.532 8.58585C20.6877 8.70717 20.8849 8.76223 21.0809 8.73911C21.2769 8.71598 21.4559 8.61652 21.5791 8.46231C21.7022 8.30809 21.7596 8.11154 21.7388 7.91527C21.718 7.71901 21.6207 7.53885 21.468 7.41385L13.343 0.913854C12.678 0.381717 11.8517 0.0917969 11 0.0917969C10.1483 0.0917969 9.32199 0.381717 8.657 0.913854L0.532 7.41385C0.376583 7.53811 0.276891 7.71901 0.254856 7.91677C0.23282 8.11453 0.290246 8.31294 0.4145 8.46835C0.538754 8.62377 0.719658 8.72346 0.917415 8.7455C1.11517 8.76753 1.31358 8.71011 1.469 8.58585L2.25 7.95985V18.2499H1C0.801088 18.2499 0.610322 18.3289 0.46967 18.4695C0.329018 18.6102 0.25 18.8009 0.25 18.9999C0.25 19.1988 0.329018 19.3895 0.46967 19.5302C0.610322 19.6708 0.801088 19.7499 1 19.7499H21C21.1989 19.7499 21.3897 19.6708 21.5303 19.5302C21.671 19.3895 21.75 19.1988 21.75 18.9999C21.75 18.8009 21.671 18.6102 21.5303 18.4695C21.3897 18.3289 21.1989 18.2499 21 18.2499H19.75V7.95985ZM8.25 6.49985C8.25 5.77051 8.53973 5.07104 9.05546 4.55531C9.57118 4.03959 10.2707 3.74985 11 3.74985C11.7293 3.74985 12.4288 4.03959 12.9445 4.55531C13.4603 5.07104 13.75 5.77051 13.75 6.49985C13.75 7.2292 13.4603 7.92867 12.9445 8.4444C12.4288 8.96012 11.7293 9.24985 11 9.24985C10.2707 9.24985 9.57118 8.96012 9.05546 8.4444C8.53973 7.92867 8.25 7.2292 8.25 6.49985ZM11.05 10.2499C11.714 10.2499 12.287 10.2499 12.746 10.3119C13.238 10.3779 13.709 10.5269 14.091 10.9089C14.473 11.2909 14.622 11.7619 14.688 12.2539C14.746 12.6839 14.75 13.2139 14.75 13.8269V18.2499H13.25V13.9999C13.25 13.2719 13.248 12.7999 13.202 12.4539C13.158 12.1289 13.088 12.0269 13.03 11.9699C12.973 11.9129 12.871 11.8419 12.546 11.7979C12.199 11.7519 11.728 11.7499 11 11.7499C10.272 11.7499 9.8 11.7519 9.454 11.7979C9.129 11.8419 9.027 11.9129 8.97 11.9699C8.913 12.0269 8.842 12.1289 8.798 12.4539C8.752 12.8009 8.75 13.2719 8.75 13.9999V18.2499H7.25V13.9499C7.25 13.2859 7.25 12.7129 7.312 12.2539C7.378 11.7619 7.527 11.2909 7.909 10.9089C8.291 10.5269 8.763 10.3779 9.254 10.3119C9.713 10.2499 10.286 10.2499 10.951 10.2499H11.049H11.05Z" fill="#818A91"/>
<path fill-rule="evenodd" clip-rule="evenodd" d="M9.75 6.5C9.75 6.16848 9.8817 5.85054 10.1161 5.61612C10.3505 5.3817 10.6685 5.25 11 5.25C11.3315 5.25 11.6495 5.3817 11.8839 5.61612C12.1183 5.85054 12.25 6.16848 12.25 6.5C12.25 6.83152 12.1183 7.14946 11.8839 7.38388C11.6495 7.6183 11.3315 7.75 11 7.75C10.6685 7.75 10.3505 7.6183 10.1161 7.38388C9.8817 7.14946 9.75 6.83152 9.75 6.5V6.5Z" fill="#818A91"/>
</svg>
