<svg width="36" height="36" viewBox="0 0 36 36" fill="none" xmlns="http://www.w3.org/2000/svg">
<rect width="36" height="36" rx="4" fill="url(#paint0_linear_228_287)"/>
<path d="M24.6535 15.2534C24.6223 14.5449 24.5077 14.0579 24.3436 13.6358C24.1743 13.1878 23.9139 12.7868 23.5726 12.4533C23.2392 12.1147 22.8355 11.8516 22.3927 11.685C21.9682 11.5209 21.4837 11.4063 20.7752 11.375C20.0615 11.3412 19.8349 11.3333 18.0246 11.3333C16.2144 11.3333 15.9878 11.3412 15.2767 11.3724C14.5683 11.4036 14.0812 11.5183 13.6593 11.6823C13.2112 11.8516 12.8101 12.1121 12.4767 12.4533C12.1381 12.7868 11.8751 13.1905 11.7083 13.6333C11.5442 14.0579 11.4296 14.5423 11.3984 15.2507C11.3645 15.9645 11.3567 16.1911 11.3567 18.0013C11.3567 19.8116 11.3645 20.0381 11.3958 20.7492C11.427 21.4577 11.5417 21.9447 11.7058 22.3668C11.8751 22.8148 12.1381 23.2158 12.4767 23.5493C12.8101 23.8879 13.2138 24.151 13.6566 24.3176C14.0812 24.4818 14.5656 24.5963 15.2742 24.6276C15.9852 24.6589 16.2119 24.6666 18.0221 24.6666C19.8324 24.6666 20.0589 24.6589 20.77 24.6276C21.4785 24.5963 21.9655 24.4818 22.3875 24.3176C23.2835 23.9712 23.992 23.2627 24.3384 22.3668C24.5024 21.9422 24.6171 21.4577 24.6483 20.7492C24.6796 20.0381 24.6874 19.8116 24.6874 18.0013C24.6874 16.1911 24.6848 15.9645 24.6535 15.2534ZM23.4528 20.6971C23.4242 21.3483 23.3148 21.6999 23.2236 21.9344C22.9996 22.5152 22.5386 22.9762 21.9577 23.2003C21.7233 23.2914 21.3691 23.4008 20.7205 23.4294C20.0172 23.4607 19.8063 23.4685 18.0273 23.4685C16.2483 23.4685 16.0347 23.4607 15.334 23.4294C14.6828 23.4008 14.3312 23.2914 14.0968 23.2003C13.8077 23.0934 13.5446 22.9241 13.3311 22.7027C13.1097 22.4865 12.9404 22.2261 12.8335 21.937C12.7424 21.7026 12.633 21.3483 12.6044 20.6998C12.5731 19.9965 12.5653 19.7855 12.5653 18.0065C12.5653 16.2275 12.5731 16.0139 12.6044 15.3133C12.633 14.6621 12.7424 14.3105 12.8335 14.0761C12.9404 13.7869 13.1097 13.5239 13.3337 13.3102C13.5498 13.0888 13.8103 12.9195 14.0994 12.8128C14.3338 12.7216 14.6881 12.6123 15.3366 12.5836C16.0399 12.5523 16.2509 12.5445 18.0298 12.5445C19.8115 12.5445 20.0224 12.5523 20.7231 12.5836C21.3743 12.6123 21.7259 12.7216 21.9603 12.8128C22.2494 12.9195 22.5125 13.0888 22.7261 13.3102C22.9475 13.5265 23.1168 13.7869 23.2236 14.0761C23.3148 14.3105 23.4242 14.6647 23.4528 15.3133C23.4841 16.0166 23.4919 16.2275 23.4919 18.0065C23.4919 19.7855 23.4841 19.9939 23.4528 20.6971Z" fill="white"/>
<path d="M18.0246 14.5762C16.1337 14.5762 14.5995 16.1103 14.5995 18.0013C14.5995 19.8923 16.1337 21.4265 18.0246 21.4265C19.9157 21.4265 21.4498 19.8923 21.4498 18.0013C21.4498 16.1103 19.9157 14.5762 18.0246 14.5762ZM18.0246 20.2231C16.7979 20.2231 15.8028 19.2282 15.8028 18.0013C15.8028 16.7745 16.7979 15.7795 18.0246 15.7795C19.2515 15.7795 20.2465 16.7745 20.2465 18.0013C20.2465 19.2282 19.2515 20.2231 18.0246 20.2231Z" fill="white"/>
<path d="M22.385 14.4407C22.385 14.8823 22.0269 15.2404 21.5852 15.2404C21.1437 15.2404 20.7856 14.8823 20.7856 14.4407C20.7856 13.9991 21.1437 13.6411 21.5852 13.6411C22.0269 13.6411 22.385 13.9991 22.385 14.4407Z" fill="white"/>
<defs>
<linearGradient id="paint0_linear_228_287" x1="-2.23517e-08" y1="2" x2="36" y2="35" gradientUnits="userSpaceOnUse">
<stop stop-color="#DF2D43"/>
<stop offset="0.523958" stop-color="#D62FC3" stop-opacity="0.6"/>
<stop offset="0.9999" stop-color="#DF2D43"/>
</linearGradient>
</defs>
</svg>
