<svg width="22" height="22" viewBox="0 0 22 22" fill="none" xmlns="http://www.w3.org/2000/svg">
<g clip-path="url(#clip0_30_2450)">
<path d="M10.8 0C4.83572 0 0 4.8357 0 10.8C0 16.7643 4.83572 21.6 10.8 21.6C16.7644 21.6 21.6001 16.7643 21.6001 10.8C21.6001 4.8357 16.7644 0 10.8 0ZM19.8001 10.8C19.8001 11.4165 19.7371 12.0186 19.6183 12.6H16.1506C16.2631 11.4026 16.2631 10.1974 16.1506 9H19.6183C19.7371 9.5814 19.8001 10.1835 19.8001 10.8ZM19.0432 7.2H15.8932C15.5485 5.436 14.9464 3.8241 14.14 2.4498C16.3322 3.33178 18.0922 5.0368 19.0432 7.2ZM14.0446 7.2H11.7001V2.1078C12.7936 3.4218 13.6054 5.1768 14.0446 7.2ZM9.90005 2.1078V7.2H7.55553C7.99474 5.1768 8.80654 3.4218 9.90005 2.1078ZM9.90005 9V12.6H7.26303C7.13164 11.4036 7.13164 10.1964 7.26303 9H9.90005ZM9.90005 14.4V19.4922C8.80654 18.1782 7.99474 16.4232 7.55553 14.4H9.90005ZM11.7001 19.4922V14.4H14.0446C13.6054 16.4232 12.7936 18.1782 11.7001 19.4922ZM11.7001 12.6V9H14.3371C14.4685 10.1964 14.4685 11.4036 14.3371 12.6H11.7001ZM7.46013 2.4498C6.65373 3.8241 6.05163 5.436 5.70693 7.2H2.55691C3.50792 5.0368 5.26788 3.33178 7.46013 2.4498ZM1.98181 9H5.44952C5.33699 10.1974 5.33699 11.4026 5.44952 12.6H1.98181C1.73894 11.4123 1.73894 10.1877 1.98181 9ZM2.55691 14.4H5.70693C6.05163 16.164 6.65373 17.7759 7.46013 19.1502C5.26788 18.2682 3.50792 16.5632 2.55691 14.4ZM14.14 19.1502C14.9464 17.7759 15.5485 16.164 15.8932 14.4H19.0432C18.0922 16.5632 16.3322 18.2682 14.14 19.1502Z" fill="#55595C"/>
</g>
<defs>
<clipPath id="clip0_30_2450">
<rect width="21.6001" height="21.6" fill="white"/>
</clipPath>
</defs>
</svg>
