<svg width="18" height="18" viewBox="0 0 18 18" fill="none" xmlns="http://www.w3.org/2000/svg">
<path d="M0.899902 6.17836C0.899902 3.78266 2.83506 1.79999 5.27828 1.79999C7.18807 1.79999 8.42319 3.02287 8.9999 3.76804C9.57662 3.02287 10.8118 1.79999 12.7215 1.79999C15.1654 1.79999 17.0999 3.78271 17.0999 6.17836C17.0999 7.22687 16.6794 8.26759 16.068 9.23849C15.4543 10.2128 14.6267 11.1513 13.7609 12.0039C12.5609 13.1857 11.228 14.2548 10.272 15.0216C9.86552 15.3476 9.52721 15.6189 9.29627 15.8211C9.12653 15.9695 8.87324 15.9695 8.70358 15.8211C8.47255 15.6189 8.13424 15.3476 7.72783 15.0216C6.77178 14.2548 5.43884 13.1857 4.23888 12.0039C3.37312 11.1513 2.54543 10.2128 1.93183 9.23849C1.32042 8.26759 0.899902 7.22687 0.899902 6.17836ZM5.27828 2.69999C3.33826 2.69999 1.7999 4.27353 1.7999 6.17836C1.7999 6.99067 2.12888 7.86245 2.6934 8.75886C3.25573 9.65177 4.0304 10.5354 4.87039 11.3627C6.0392 12.5138 7.27571 13.5045 8.22047 14.2615C8.51145 14.4947 8.77477 14.7056 8.9999 14.8923C9.22499 14.7056 9.48833 14.4947 9.7793 14.2615C10.7241 13.5045 11.9606 12.5138 13.1294 11.3627C13.9694 10.5354 14.7441 9.65177 15.3064 8.75886C15.871 7.86245 16.1999 6.99067 16.1999 6.17836C16.1999 4.27348 14.6622 2.69999 12.7215 2.69999C10.8364 2.69999 9.73619 4.23189 9.45287 4.68924C9.24533 5.02424 8.75445 5.02423 8.54693 4.68923C8.26361 4.23188 7.1634 2.69999 5.27828 2.69999Z" fill="#15151A"/>
</svg>
