<svg width="19" height="20" viewBox="0 0 19 20" fill="none" xmlns="http://www.w3.org/2000/svg">
<path d="M15.1321 14.016C16.3066 14.545 17.0189 15.239 17.0189 16C17.0189 17.657 13.6396 19 9.47169 19C5.30377 19 1.92452 17.657 1.92452 16C1.92452 15.24 2.63679 14.544 3.81131 14.016" stroke="#818A91" stroke-width="2" stroke-linecap="round" stroke-linejoin="round"/>
<path d="M14.1887 6.444C14.1887 9.537 9.4717 15 9.4717 15C9.4717 15 4.75471 9.537 4.75471 6.444C4.75471 3.352 6.86698 1 9.4717 1C12.0764 1 14.1887 3.352 14.1887 6.444Z" stroke="#818A91" stroke-width="2" stroke-linecap="round" stroke-linejoin="round"/>
<path d="M9.47169 7C9.99272 7 10.4151 6.55228 10.4151 6C10.4151 5.44772 9.99272 5 9.47169 5C8.95067 5 8.5283 5.44772 8.5283 6C8.5283 6.55228 8.95067 7 9.47169 7Z" stroke="#818A91" stroke-width="2" stroke-linecap="round" stroke-linejoin="round"/>
</svg>
