<svg width="16" height="16" viewBox="0 0 16 16" fill="none" xmlns="http://www.w3.org/2000/svg">
<g clip-path="url(#clip0_43_454)">
<path d="M0 6.40002V12.8C0 13.2244 0.168571 13.6313 0.468629 13.9314C0.768687 14.2315 1.17565 14.4 1.6 14.4H14.4C14.8243 14.4 15.2313 14.2315 15.5314 13.9314C15.8314 13.6313 16 13.2244 16 12.8V6.40002L8 9.60002L0 6.40002Z" fill="white"/>
<path d="M1.6 1.59998C1.17565 1.59998 0.768687 1.76855 0.468629 2.0686C0.168571 2.36866 0 2.77563 0 3.19998L0 4.79998L8 7.99998L16 4.79998V3.19998C16 2.77563 15.8314 2.36866 15.5314 2.0686C15.2313 1.76855 14.8243 1.59998 14.4 1.59998H1.6Z" fill="white"/>
</g>
<defs>
<clipPath id="clip0_43_454">
<rect width="16" height="16" fill="white"/>
</clipPath>
</defs>
</svg>
