<svg width="20" height="20" viewBox="0 0 20 20" fill="none" xmlns="http://www.w3.org/2000/svg">
<g clip-path="url(#clip0_43_460)">
<path fill-rule="evenodd" clip-rule="evenodd" d="M15.8334 3.95083V6.66666C16.1617 6.66666 16.4868 6.73132 16.7901 6.85696C17.0934 6.9826 17.369 7.16675 17.6011 7.39889C17.8333 7.63104 18.0174 7.90664 18.1431 8.20995C18.2687 8.51326 18.3334 8.83835 18.3334 9.16666C18.3334 9.49496 18.2687 9.82005 18.1431 10.1234C18.0174 10.4267 17.8333 10.7023 17.6011 10.9344C17.369 11.1666 17.0934 11.3507 16.7901 11.4764C16.4868 11.602 16.1617 11.6667 15.8334 11.6667V14.1667C15.8334 15.54 14.2659 16.3242 13.1667 15.5L11.45 14.2117C10.5324 13.5236 9.46398 13.0643 8.33336 12.8717V15.2417C8.33345 15.7864 8.1366 16.3129 7.77911 16.724C7.42161 17.1351 6.92756 17.4031 6.38804 17.4786C5.84851 17.5541 5.29987 17.432 4.84326 17.1349C4.38664 16.8377 4.05283 16.3855 3.90336 15.8617L2.59502 11.2817C2.12421 10.7257 1.8178 10.0493 1.71026 9.32875C1.60272 8.60816 1.6983 7.87186 1.98626 7.20261C2.27422 6.53336 2.74314 5.95769 3.34032 5.54032C3.93749 5.12295 4.63924 4.88042 5.36669 4.83999L7.88169 4.69999C9.11221 4.63152 10.3089 4.27194 11.3734 3.65083L13.3267 2.51083C14.4384 1.86333 15.8334 2.66416 15.8334 3.95083ZM4.69502 12.565L5.50586 15.4042C5.54488 15.5416 5.63231 15.6603 5.752 15.7383C5.87169 15.8163 6.01557 15.8483 6.15705 15.8285C6.29853 15.8087 6.42807 15.7384 6.52175 15.6305C6.61542 15.5226 6.6669 15.3845 6.66669 15.2417V12.7333L5.36669 12.6608C5.14046 12.6483 4.91574 12.6162 4.69502 12.565ZM14.1667 3.95083L12.2125 5.09166C11.0253 5.78369 9.70154 6.20856 8.33336 6.33666V11.1858C9.82252 11.3908 11.24 11.9717 12.45 12.8783L14.1667 14.1667V3.95083ZM6.66669 6.43666L5.45836 6.50333C4.89623 6.53436 4.36616 6.77501 3.97279 7.17776C3.57941 7.58051 3.35132 8.1161 3.33353 8.6788C3.31574 9.24151 3.50954 9.79043 3.87669 10.2172C4.24384 10.644 4.75765 10.9177 5.31669 10.9842L5.45836 10.9967L6.66669 11.0633V6.43666ZM15.8334 8.33333V9.99999C16.0458 9.99976 16.25 9.91843 16.4045 9.77262C16.5589 9.62681 16.6519 9.42753 16.6643 9.2155C16.6768 9.00346 16.6078 8.79468 16.4715 8.6318C16.3351 8.46892 16.1418 8.36424 15.9309 8.33916L15.8334 8.33333Z" fill="white"/>
</g>
<defs>
<clipPath id="clip0_43_460">
<rect width="20" height="20" fill="white"/>
</clipPath>
</defs>
</svg>
