<svg width="16" height="16" viewBox="0 0 16 16" fill="none" xmlns="http://www.w3.org/2000/svg">
<path d="M12.6562 7.28125L7.35938 2.09375C7.24479 1.97917 7.11198 1.88802 6.96094 1.82031C6.8099 1.7526 6.64583 1.71875 6.46875 1.71875C6.125 1.71875 5.83073 1.84115 5.58594 2.08594C5.34115 2.33073 5.21875 2.625 5.21875 2.96875C5.21875 3.14583 5.2526 3.3125 5.32031 3.46875C5.38802 3.625 5.48438 3.76042 5.60938 3.875L8.71875 6.92188H1.25C0.90625 6.92188 0.611979 7.04427 0.367188 7.28906C0.122396 7.53385 0 7.82812 0 8.17188C0 8.51562 0.122396 8.8099 0.367188 9.05469C0.611979 9.29948 0.90625 9.42188 1.25 9.42188H8.71875L5.60938 12.4688C5.49479 12.5833 5.40625 12.7161 5.34375 12.8672C5.28125 13.0182 5.25 13.1771 5.25 13.3438C5.25 13.6875 5.36979 13.9818 5.60938 14.2266C5.84896 14.4714 6.14583 14.5938 6.5 14.5938C6.66667 14.5938 6.82292 14.5625 6.96875 14.5C7.11458 14.4375 7.24479 14.3542 7.35938 14.25L12.6562 9.0625C12.7708 8.94792 12.862 8.8151 12.9297 8.66406C12.9974 8.51302 13.0312 8.34896 13.0312 8.17188C13.0312 7.99479 12.9974 7.83073 12.9297 7.67969C12.862 7.52865 12.7708 7.39583 12.6562 7.28125Z" fill="white"/>
</svg>
