<svg width="24" height="24" viewBox="0 0 24 24" fill="none" xmlns="http://www.w3.org/2000/svg">
<path d="M14.3999 14.4004H16.7999V16.8004H14.3999V14.4004ZM5.9999 2.40039H17.9999C18.0878 2.40042 18.1747 2.41979 18.2543 2.45712C18.334 2.49444 18.4044 2.54882 18.4607 2.61639L21.4607 6.21639C21.6011 6.38439 21.5999 6.46959 21.5999 6.57879V8.40039C21.5999 9.46599 21.1367 10.4248 20.3999 11.0836V21.0004C20.3999 21.1595 20.3367 21.3121 20.2242 21.4247C20.1116 21.5372 19.959 21.6004 19.7999 21.6004H11.9999V13.8004C11.9999 13.6413 11.9367 13.4886 11.8242 13.3761C11.7116 13.2636 11.559 13.2004 11.3999 13.2004H6.5999C6.44077 13.2004 6.28816 13.2636 6.17564 13.3761C6.06312 13.4886 5.9999 13.6413 5.9999 13.8004V21.6004H4.1999C4.04077 21.6004 3.88816 21.5372 3.77564 21.4247C3.66312 21.3121 3.5999 21.1595 3.5999 21.0004V11.0836C2.8631 10.4236 2.3999 9.46599 2.3999 8.40039V6.60039C2.39997 6.46005 2.44922 6.32417 2.5391 6.21639L5.5391 2.61639C5.59539 2.54882 5.66584 2.49444 5.74547 2.45712C5.8251 2.41979 5.91196 2.40042 5.9999 2.40039ZM3.5999 7.20039V8.40039C3.5999 9.03691 3.85276 9.64736 4.30285 10.0974C4.75293 10.5475 5.36338 10.8004 5.9999 10.8004C6.63642 10.8004 7.24687 10.5475 7.69696 10.0974C8.14705 9.64736 8.3999 9.03691 8.3999 8.40039V7.20039H3.5999ZM9.5999 7.20039V8.40039C9.5999 9.03691 9.85276 9.64736 10.3028 10.0974C10.7529 10.5475 11.3634 10.8004 11.9999 10.8004C12.6364 10.8004 13.2469 10.5475 13.697 10.0974C14.147 9.64736 14.3999 9.03691 14.3999 8.40039V7.20039H9.5999ZM15.5999 7.20039V8.40039C15.5999 9.03691 15.8528 9.64736 16.3028 10.0974C16.7529 10.5475 17.3634 10.8004 17.9999 10.8004C18.6364 10.8004 19.2469 10.5475 19.697 10.0974C20.147 9.64736 20.3999 9.03691 20.3999 8.40039V7.20039H15.5999ZM6.2807 3.60039L4.2815 6.00039H8.5679L9.3671 3.60039H6.2807ZM14.1671 6.00039L13.3679 3.60039H10.6319L9.8327 6.00039H14.1671ZM15.4319 6.00039H19.7195L17.7191 3.60039H14.6327L15.4319 6.00039ZM13.1999 13.8004V17.4004C13.1999 17.5595 13.2631 17.7121 13.3756 17.8247C13.4882 17.9372 13.6408 18.0004 13.7999 18.0004H17.3999C17.559 18.0004 17.7116 17.9372 17.8242 17.8247C17.9367 17.7121 17.9999 17.5595 17.9999 17.4004V13.8004C17.9999 13.6413 17.9367 13.4886 17.8242 13.3761C17.7116 13.2636 17.559 13.2004 17.3999 13.2004H13.7999C13.6408 13.2004 13.4882 13.2636 13.3756 13.3761C13.2631 13.4886 13.1999 13.6413 13.1999 13.8004ZM10.7999 21.6004V14.4004H7.1999V21.6004H10.7999Z" fill="#818A91"/>
</svg>
