<svg width="210" height="268" viewBox="0 0 210 268" fill="none" xmlns="http://www.w3.org/2000/svg">
<path fill-rule="evenodd" clip-rule="evenodd" d="M176.322 0.0388184L33.6776 0.0388184C16.7583 0.0388184 3.04254 13.8096 3.04254 30.7968L3.04254 82.7009H2.56386C1.50641 82.7009 0.64917 83.5616 0.64917 84.6233L0.64917 96.6381C0.64917 97.6998 1.50641 98.5605 2.56386 98.5605H3.04254L3.04254 113.459H2.56386C1.50641 113.459 0.64917 114.32 0.64917 115.381L0.64917 140.372C0.64917 141.434 1.50641 142.295 2.56386 142.295H3.04254L3.04254 154.309H2.56386C1.50641 154.309 0.64917 155.17 0.64917 156.232L0.64917 181.223C0.64917 182.284 1.50641 183.145 2.56386 183.145H3.04254L3.04254 392.203C3.04254 409.19 16.7583 422.961 33.6776 422.961H176.322C193.241 422.961 206.957 409.19 206.957 392.203V172.572H207.436C208.493 172.572 209.351 171.711 209.351 170.65V125.954C209.351 124.893 208.493 124.032 207.436 124.032H206.957V30.7968C206.957 13.8096 193.241 0.0388184 176.322 0.0388184ZM11.6586 30.7968C11.6586 18.5873 21.5169 8.6895 33.6776 8.6895L67.1847 8.6895V15.8984C67.1847 21.2069 71.4709 25.5103 76.7582 25.5103L133.72 25.5103C139.008 25.5103 143.294 21.2069 143.294 15.8984V8.6895H176.322C188.483 8.6895 198.341 18.5873 198.341 30.7968V392.203C198.341 404.413 188.483 414.311 176.322 414.311H33.6776C21.5169 414.311 11.6586 404.413 11.6586 392.203L11.6586 30.7968Z" fill="white"/>
</svg>
