<svg width="22" height="22" viewBox="0 0 22 22" fill="none" xmlns="http://www.w3.org/2000/svg">
<g clip-path="url(#clip0_30_2373)">
<path d="M19.2688 10.622L11.1688 2.522C10.8448 2.198 10.3948 2 9.8998 2H3.5998C2.6098 2 1.7998 2.81 1.7998 3.8V10.1C1.7998 10.595 1.9978 11.045 2.3308 11.378L10.4308 19.478C10.7548 19.802 11.2048 20 11.6998 20C12.1948 20 12.6448 19.802 12.9688 19.469L19.2688 13.169C19.6018 12.845 19.7998 12.395 19.7998 11.9C19.7998 11.405 19.5928 10.946 19.2688 10.622ZM11.6998 18.209L3.5998 10.1V3.8H9.8998V3.791L17.9998 11.891L11.6998 18.209Z" fill="#818A91"/>
<path d="M5.85 7.4002C6.59558 7.4002 7.2 6.79578 7.2 6.0502C7.2 5.30461 6.59558 4.7002 5.85 4.7002C5.10441 4.7002 4.5 5.30461 4.5 6.0502C4.5 6.79578 5.10441 7.4002 5.85 7.4002Z" fill="#818A91"/>
</g>
<defs>
<clipPath id="clip0_30_2373">
<rect width="21.6" height="21.6" fill="white" transform="translate(0 0.200195)"/>
</clipPath>
</defs>
</svg>
