<svg width="14" height="14" viewBox="0 0 14 14" fill="none" xmlns="http://www.w3.org/2000/svg">
<g clip-path="url(#clip0_98_8289)">
<path fill-rule="evenodd" clip-rule="evenodd" d="M6.3609 1.4378C6.4995 1.4378 6.6108 1.5498 6.6108 1.6877C6.6108 1.7003 6.6059 1.7115 6.6038 1.7241H6.6108V7.1526C6.6108 7.2905 6.7228 7.4025 6.8607 7.4025H12.3067C12.4439 7.4025 12.5559 7.5145 12.5559 7.6524L12.5545 7.6594L12.5559 7.7189C12.5559 11.1874 9.7454 14 6.2776 14C2.8105 14 0 11.1874 0 7.7189C0 4.249 2.8105 1.4378 6.2776 1.4378L6.3448 1.4392C6.3504 1.4406 6.3553 1.4378 6.3609 1.4378ZM7.791 0C11.2049 0.035 13.965 2.7972 14.0007 6.2132C14.0007 6.3511 13.8887 6.4631 13.7508 6.4631C13.7382 6.4631 13.727 6.4575 13.7144 6.4561V6.4631H7.791C7.72472 6.4631 7.66116 6.43677 7.61429 6.38991C7.56743 6.34304 7.5411 6.27948 7.5411 6.2132V0.287H7.5481C7.5467 0.2744 7.5411 0.2632 7.5411 0.2506C7.5411 0.1127 7.6531 0.0007 7.791 0.0007V0Z" fill="#6D6D6D"/>
</g>
<defs>
<clipPath id="clip0_98_8289">
<rect width="14" height="14" fill="white"/>
</clipPath>
</defs>
</svg>
