<svg width="24" height="24" viewBox="0 0 24 24" fill="none" xmlns="http://www.w3.org/2000/svg">
<g clip-path="url(#clip0_30_2459)">
<path d="M12.0004 0.525391C5.67264 0.525391 0.525391 5.67264 0.525391 12.0004C0.525391 18.3281 5.67264 23.4754 12.0004 23.4754C18.3281 23.4754 23.4754 18.3281 23.4754 12.0004C23.4754 5.67264 18.3281 0.525391 12.0004 0.525391ZM12.0004 21.5254C8.98464 21.5254 6.29664 20.1124 4.55064 17.9179C5.76685 16.3265 7.46341 15.1694 9.38889 14.6179C8.69559 14.1775 8.12467 13.5692 7.72899 12.8495C7.33332 12.1297 7.12571 11.3217 7.12539 10.5004C7.12539 7.81239 9.31239 5.62539 12.0004 5.62539C14.6884 5.62539 16.8754 7.81239 16.8754 10.5004C16.8747 11.3219 16.6669 12.1299 16.2711 12.8497C15.8753 13.5696 15.3044 14.178 14.6111 14.6186C16.537 15.1697 18.2339 16.3269 19.4501 17.9186C17.7041 20.1124 15.0161 21.5254 12.0004 21.5254Z" fill="#717171"/>
</g>
<defs>
<clipPath id="clip0_30_2459">
<rect width="24" height="24" fill="white"/>
</clipPath>
</defs>
</svg>
