<svg width="28" height="28" viewBox="0 0 28 28" fill="none" xmlns="http://www.w3.org/2000/svg">
<path d="M11.894 2.01395L23.394 4.26395C23.5647 4.29735 23.7184 4.38901 23.829 4.52327C23.9395 4.65753 24 4.82604 24 4.99995V23C24 23.1739 23.9395 23.3424 23.829 23.4766C23.7184 23.6109 23.5647 23.7026 23.394 23.736L11.894 25.986C11.7854 26.0072 11.6734 26.0042 11.5661 25.977C11.4587 25.9499 11.3588 25.8993 11.2733 25.8289C11.1879 25.7586 11.119 25.6702 11.0718 25.5701C11.0245 25.47 11 25.3606 11 25.25V2.74995C11 2.63926 11.0245 2.52994 11.0718 2.42984C11.119 2.32973 11.1879 2.24133 11.2733 2.17098C11.3588 2.10062 11.4587 2.05005 11.5661 2.02291C11.6734 1.99576 11.7854 1.9927 11.894 2.01395ZM12.5 3.66095V24.34L22.5 22.384V5.61795L12.5 3.66095ZM10 4.50095V5.99995H5.5V22H10V23.5H4.75C4.56861 23.4999 4.39339 23.4341 4.25677 23.3148C4.12016 23.1955 4.03143 23.0307 4.007 22.851L4 22.75V5.24995C4.00001 5.06872 4.06564 4.89361 4.18477 4.75702C4.30389 4.62043 4.46845 4.5316 4.648 4.50695L4.75 4.49995L10 4.50095ZM15 13.001C15.2652 13.001 15.5196 13.1063 15.7071 13.2938C15.8946 13.4814 16 13.7357 16 14.001C16 14.2662 15.8946 14.5205 15.7071 14.7081C15.5196 14.8956 15.2652 15.001 15 15.001C14.7348 15.001 14.4804 14.8956 14.2929 14.7081C14.1054 14.5205 14 14.2662 14 14.001C14 13.7357 14.1054 13.4814 14.2929 13.2938C14.4804 13.1063 14.7348 13.001 15 13.001Z" fill="#818A91"/>
</svg>
