<svg width="20" height="20" viewBox="0 0 20 20" fill="none" xmlns="http://www.w3.org/2000/svg">
<path d="M0 5C0 4.33696 0.263392 3.70107 0.732233 3.23223C1.20107 2.76339 1.83696 2.5 2.5 2.5H17.5C18.163 2.5 18.7989 2.76339 19.2678 3.23223C19.7366 3.70107 20 4.33696 20 5V15C20 15.663 19.7366 16.2989 19.2678 16.7678C18.7989 17.2366 18.163 17.5 17.5 17.5H2.5C1.83696 17.5 1.20107 17.2366 0.732233 16.7678C0.263392 16.2989 0 15.663 0 15V5ZM14.5825 7.3625C15.435 7.3625 16.0062 7.95 16.0662 8.74625H17.5V8.60875C17.4338 7.125 16.22 6.10875 14.5725 6.10875C12.5675 6.10875 11.425 7.42125 11.425 9.5475V10.4813C11.425 12.6063 12.5562 13.8937 14.5725 13.8937C16.215 13.8937 17.4287 12.9037 17.5 11.47V11.3275H16.0662C16.0062 12.0963 15.445 12.64 14.5825 12.64C13.5338 12.64 12.935 11.865 12.935 10.4813V9.55375C12.935 8.16375 13.545 7.3625 14.5825 7.3625ZM6.8475 8.52H6.9025L8.1775 13.75H9.435L11.25 6.25125H9.7725L8.7475 11.695H8.6775L7.4625 6.25125H6.2875L5.0725 11.695H5.00625L3.9725 6.25125H2.5L4.315 13.75H5.57125L6.8475 8.52Z" fill="#DF2D43"/>
</svg>
