<svg width="20" height="20" viewBox="0 0 20 20" fill="none" xmlns="http://www.w3.org/2000/svg">
<path d="M12 12H14V14H12V12ZM5 2H15C15.0733 2.00003 15.1457 2.01617 15.212 2.04727C15.2784 2.07838 15.3371 2.12369 15.384 2.18L17.884 5.18C18.001 5.32 18 5.391 18 5.482V7C18 7.888 17.614 8.687 17 9.236V17.5C17 17.6326 16.9473 17.7598 16.8536 17.8536C16.7598 17.9473 16.6326 18 16.5 18H10V11.5C10 11.3674 9.94732 11.2402 9.85355 11.1464C9.75979 11.0527 9.63261 11 9.5 11H5.5C5.36739 11 5.24021 11.0527 5.14645 11.1464C5.05268 11.2402 5 11.3674 5 11.5V18H3.5C3.36739 18 3.24021 17.9473 3.14645 17.8536C3.05268 17.7598 3 17.6326 3 17.5V9.236C2.386 8.686 2 7.888 2 7V5.5C2.00005 5.38305 2.0411 5.26982 2.116 5.18L4.616 2.18C4.6629 2.12369 4.72161 2.07838 4.78797 2.04727C4.85433 2.01617 4.92671 2.00003 5 2ZM3 6V7C3 7.53043 3.21071 8.03914 3.58579 8.41421C3.96086 8.78929 4.46957 9 5 9C5.53043 9 6.03914 8.78929 6.41421 8.41421C6.78929 8.03914 7 7.53043 7 7V6H3ZM8 6V7C8 7.53043 8.21071 8.03914 8.58579 8.41421C8.96086 8.78929 9.46957 9 10 9C10.5304 9 11.0391 8.78929 11.4142 8.41421C11.7893 8.03914 12 7.53043 12 7V6H8ZM13 6V7C13 7.53043 13.2107 8.03914 13.5858 8.41421C13.9609 8.78929 14.4696 9 15 9C15.5304 9 16.0391 8.78929 16.4142 8.41421C16.7893 8.03914 17 7.53043 17 7V6H13ZM5.234 3L3.568 5H7.14L7.806 3H5.234ZM11.806 5L11.14 3H8.86L8.194 5H11.806ZM12.86 5H16.433L14.766 3H12.194L12.86 5ZM11 11.5V14.5C11 14.6326 11.0527 14.7598 11.1464 14.8536C11.2402 14.9473 11.3674 15 11.5 15H14.5C14.6326 15 14.7598 14.9473 14.8536 14.8536C14.9473 14.7598 15 14.6326 15 14.5V11.5C15 11.3674 14.9473 11.2402 14.8536 11.1464C14.7598 11.0527 14.6326 11 14.5 11H11.5C11.3674 11 11.2402 11.0527 11.1464 11.1464C11.0527 11.2402 11 11.3674 11 11.5ZM9 18V12H6V18H9Z" fill="#818A91"/>
</svg>
