<svg width="24" height="24" viewBox="0 0 24 24" fill="none" xmlns="http://www.w3.org/2000/svg">
<path d="M12.0002 9.0252C12.1335 9.0252 12.2629 9.0502 12.3882 9.1002C12.5135 9.1502 12.6175 9.21686 12.7002 9.3002L17.3002 13.9002C17.4835 14.0835 17.5752 14.3169 17.5752 14.6002C17.5752 14.8835 17.4835 15.1169 17.3002 15.3002C17.1169 15.4835 16.8835 15.5752 16.6002 15.5752C16.3169 15.5752 16.0835 15.4835 15.9002 15.3002L12.0002 11.4002L8.1002 15.3002C7.91686 15.4835 7.68353 15.5752 7.4002 15.5752C7.11686 15.5752 6.88353 15.4835 6.7002 15.3002C6.51686 15.1169 6.42519 14.8835 6.42519 14.6002C6.42519 14.3169 6.51686 14.0835 6.7002 13.9002L11.3002 9.3002C11.4002 9.2002 11.5085 9.1292 11.6252 9.0872C11.7419 9.0452 11.8669 9.02453 12.0002 9.0252Z" fill="#818A91"/>
</svg>
