<svg width="38" height="38" viewBox="0 0 38 38" fill="none" xmlns="http://www.w3.org/2000/svg">
<path d="M19 0.831238C8.98105 0.831238 0.831238 8.98105 0.831238 19C0.831238 29.0189 8.98105 37.1687 19 37.1687C29.0189 37.1687 37.1687 29.0189 37.1687 19C37.1687 8.98105 29.0189 0.831238 19 0.831238V0.831238ZM19 34.0812C14.2251 34.0812 9.96905 31.844 7.20455 28.3694C9.13021 25.8497 11.8164 24.0175 14.8651 23.1444C13.7674 22.4471 12.8634 21.484 12.2369 20.3444C11.6105 19.2048 11.2817 17.9255 11.2812 16.625C11.2812 12.369 14.744 8.90624 19 8.90624C23.256 8.90624 26.7187 12.369 26.7187 16.625C26.7176 17.9256 26.3886 19.205 25.7619 20.3447C25.1353 21.4845 24.2313 22.4478 23.1337 23.1455C26.183 24.0181 28.8698 25.8504 30.7954 28.3706C28.0309 31.844 23.7749 34.0812 19 34.0812Z" fill="#717171"/>
</svg>
