<svg width="24" height="24" viewBox="0 0 24 24" fill="none" xmlns="http://www.w3.org/2000/svg">
<path d="M3.42188 1.92188V5.57812H8.57812V1.92188H3.42188ZM9.42188 1.92188V5.57812H20.5781V1.92188H9.42188ZM18.75 3C18.9489 3 19.1397 3.07902 19.2803 3.21967C19.421 3.36032 19.5 3.55109 19.5 3.75C19.5 3.94891 19.421 4.13968 19.2803 4.28033C19.1397 4.42098 18.9489 4.5 18.75 4.5C18.5511 4.5 18.3603 4.42098 18.2197 4.28033C18.079 4.13968 18 3.94891 18 3.75C18 3.55109 18.079 3.36032 18.2197 3.21967C18.3603 3.07902 18.5511 3 18.75 3ZM10.5 3.32812H12.75V4.17188H10.5V3.32812ZM14.25 3.32812H16.5V4.17188H14.25V3.32812ZM3.42188 6.42188V22.8281H20.5781V6.42188H3.42188ZM12 7.82812C15.8766 7.82812 19.0312 10.9828 19.0312 14.8594C19.0312 18.7359 15.8766 21.8906 12 21.8906C8.12344 21.8906 4.96875 18.7359 4.96875 14.8594C4.96875 10.9828 8.12344 7.82812 12 7.82812ZM12 8.67188C8.57812 8.67188 5.8125 11.4375 5.8125 14.8594C5.8125 18.2812 8.57812 21.0469 12 21.0469C14.2734 21.0469 16.2563 19.8281 17.3297 18.0047L15.9188 16.875C15.5482 17.595 14.9865 18.1991 14.2952 18.6208C13.6039 19.0425 12.8098 19.2656 12 19.2656C10.8315 19.2654 9.71086 18.8011 8.88458 17.9748C8.05831 17.1485 7.594 16.0279 7.59375 14.8594C7.594 13.6908 8.05831 12.5702 8.88458 11.744C9.71086 10.9177 10.8315 10.4534 12 10.4531C12.848 10.4529 13.6781 10.6974 14.3906 11.1572C15.1032 11.6169 15.668 12.2725 16.0172 13.0453L17.4422 11.9062C16.3969 9.97969 14.3531 8.67188 12 8.67188ZM11.6766 11.5781C9.32813 11.6297 8.07188 13.9688 8.77031 15.9797C8.7375 14.2078 10.1813 12.3234 11.6766 11.5781ZM17.7984 12.6984L16.2984 13.8984C16.3695 14.2138 16.4057 14.5361 16.4062 14.8594C16.4066 15.2634 16.3514 15.6657 16.2422 16.0547L17.7141 17.2359C18.0187 16.5047 18.1875 15.7031 18.1875 14.8594C18.1875 14.1 18.0516 13.3687 17.7984 12.6984Z" fill="#DF2D43"/>
</svg>
