<svg width="24" height="24" viewBox="0 0 24 24" fill="none" xmlns="http://www.w3.org/2000/svg">
<g clip-path="url(#clip0_161_103)">
<path d="M11.9996 21C13.2399 21 14.2453 19.9946 14.2453 18.7543C14.2453 17.514 13.2399 16.5086 11.9996 16.5086C10.7593 16.5086 9.75391 17.514 9.75391 18.7543C9.75391 19.9946 10.7593 21 11.9996 21Z" stroke="#DF2D43" stroke-width="2" stroke-linecap="round" stroke-linejoin="round"/>
<path d="M7.76541 13.7143C8.32285 13.142 8.98927 12.6872 9.72534 12.3766C10.4614 12.066 11.2522 11.906 12.0511 11.906C12.85 11.906 13.6408 12.066 14.3769 12.3766C15.113 12.6872 15.7794 13.142 16.3368 13.7143M4.04541 10.8171C5.08892 9.76755 6.32963 8.93461 7.6962 8.36623C9.06276 7.79785 10.5282 7.50525 12.0083 7.50525C13.4883 7.50525 14.9538 7.79785 16.3203 8.36623C17.6869 8.93461 18.9276 9.76755 19.9711 10.8171" stroke="#DF2D43" stroke-width="2" stroke-linecap="round" stroke-linejoin="round"/>
<path d="M0.856934 7.62857C2.31996 6.16478 4.05706 5.0036 5.969 4.21136C7.88093 3.41912 9.93022 3.01135 11.9998 3.01135C14.0694 3.01135 16.1187 3.41912 18.0306 4.21136C19.9425 5.0036 21.6796 6.16478 23.1426 7.62857" stroke="#DF2D43" stroke-width="2" stroke-linecap="round" stroke-linejoin="round"/>
</g>
<defs>
<clipPath id="clip0_161_103">
<rect width="24" height="24" fill="white"/>
</clipPath>
</defs>
</svg>
